<svg xmlns="http://www.w3.org/2000/svg" width="72" height="72" fill="none"><path fill="#EFEFEF" d="M19.729 12.051a1.5 1.5 0 1 0 0-3 1.5 1.5 0 0 0 0 3M1.797 12.051a1.5 1.5 0 1 0 0-3 1.5 1.5 0 0 0 0 3M37.66 12.051a1.5 1.5 0 1 0 0-3 1.5 1.5 0 0 0 0 3M55.592 12.051a1.5 1.5 0 1 0 0-3 1.5 1.5 0 0 0 0 3M10.554 3.06a1.5 1.5 0 1 0 0-3 1.5 1.5 0 0 0 0 3M28.538 3.06a1.5 1.5 0 1 0 0-3 1.5 1.5 0 0 0 0 3M46.522 3.06a1.5 1.5 0 1 0 0-3 1.5 1.5 0 0 0 0 3M64.505 3.06a1.5 1.5 0 1 0 0-3 1.5 1.5 0 0 0 0 3M19.661 30.328a1.5 1.5 0 1 0 0-3 1.5 1.5 0 0 0 0 3M1.73 30.328a1.5 1.5 0 1 0 0-3 1.5 1.5 0 0 0 0 3M37.593 30.328a1.5 1.5 0 1 0 0-3 1.5 1.5 0 0 0 0 3M55.524 30.328a1.5 1.5 0 1 0 0-3 1.5 1.5 0 0 0 0 3M10.487 21.336a1.5 1.5 0 1 0 0-3 1.5 1.5 0 0 0 0 3M28.47 21.336a1.5 1.5 0 1 0 0-3 1.5 1.5 0 0 0 0 3M46.455 21.336a1.5 1.5 0 1 0 0-3 1.5 1.5 0 0 0 0 3M64.439 21.336a1.5 1.5 0 1 0 0-3 1.5 1.5 0 0 0 0 3M19.661 48.156a1.5 1.5 0 1 0 0-3 1.5 1.5 0 0 0 0 3M1.73 48.156a1.5 1.5 0 1 0 0-3 1.5 1.5 0 0 0 0 3M37.593 48.156a1.5 1.5 0 1 0 0-3 1.5 1.5 0 0 0 0 3M55.524 48.156a1.5 1.5 0 1 0 0-3 1.5 1.5 0 0 0 0 3M10.487 39.164a1.5 1.5 0 1 0 0-3 1.5 1.5 0 0 0 0 3M28.47 39.164a1.5 1.5 0 1 0 0-3 1.5 1.5 0 0 0 0 3M46.455 39.164a1.5 1.5 0 1 0 0-3 1.5 1.5 0 0 0 0 3M64.439 39.164a1.5 1.5 0 1 0 0-3 1.5 1.5 0 0 0 0 3M19.661 66.296a1.5 1.5 0 1 0 0-3 1.5 1.5 0 0 0 0 3M1.73 66.296a1.5 1.5 0 1 0 0-3 1.5 1.5 0 0 0 0 3M37.593 66.296a1.5 1.5 0 1 0 0-3 1.5 1.5 0 0 0 0 3M55.524 66.296a1.5 1.5 0 1 0 0-3 1.5 1.5 0 0 0 0 3M10.487 57.304a1.5 1.5 0 1 0 0-3 1.5 1.5 0 0 0 0 3M28.47 57.304a1.5 1.5 0 1 0 0-3 1.5 1.5 0 0 0 0 3M46.455 57.304a1.5 1.5 0 1 0 0-3 1.5 1.5 0 0 0 0 3M64.439 57.304a1.5 1.5 0 1 0 0-3 1.5 1.5 0 0 0 0 3"/></svg>