<svg xmlns="http://www.w3.org/2000/svg" width="64" height="64" fill="none"><path fill="#F5F5F5" d="M19.103 13.55c1.601 0 2.9-1.232 2.9-2.752s-1.299-2.752-2.9-2.752c-1.602 0-2.9 1.232-2.9 2.752s1.298 2.752 2.9 2.752M3.163 13.55c1.602 0 2.9-1.232 2.9-2.752s-1.298-2.752-2.9-2.752-2.9 1.232-2.9 2.752 1.299 2.752 2.9 2.752M35.042 13.55c1.602 0 2.9-1.232 2.9-2.752s-1.298-2.752-2.9-2.752-2.9 1.232-2.9 2.752 1.299 2.752 2.9 2.752M50.981 13.55c1.602 0 2.9-1.232 2.9-2.752s-1.298-2.752-2.9-2.752-2.9 1.232-2.9 2.752 1.299 2.752 2.9 2.752M10.948 5.557c1.601 0 2.9-1.232 2.9-2.752S12.549.053 10.948.053s-2.9 1.232-2.9 2.752 1.299 2.752 2.9 2.752M26.933 5.557c1.602 0 2.9-1.232 2.9-2.752S28.535.053 26.933.053s-2.9 1.232-2.9 2.752 1.299 2.752 2.9 2.752M42.92 5.557c1.6 0 2.899-1.232 2.899-2.752S44.52.053 42.919.053s-2.9 1.232-2.9 2.752 1.299 2.752 2.9 2.752M58.905 5.557c1.6 0 2.9-1.232 2.9-2.752s-1.3-2.752-2.9-2.752c-1.602 0-2.9 1.232-2.9 2.752s1.298 2.752 2.9 2.752M19.043 29.796c1.602 0 2.9-1.232 2.9-2.752s-1.298-2.752-2.9-2.752-2.9 1.232-2.9 2.752 1.299 2.752 2.9 2.752M3.104 29.796c1.601 0 2.9-1.232 2.9-2.752s-1.299-2.752-2.9-2.752c-1.602 0-2.9 1.232-2.9 2.752s1.298 2.752 2.9 2.752M34.982 29.796c1.602 0 2.9-1.232 2.9-2.752s-1.298-2.752-2.9-2.752-2.9 1.232-2.9 2.752 1.299 2.752 2.9 2.752M50.922 29.796c1.601 0 2.9-1.232 2.9-2.752s-1.299-2.752-2.9-2.752c-1.602 0-2.9 1.232-2.9 2.752s1.298 2.752 2.9 2.752M10.888 21.803c1.601 0 2.9-1.232 2.9-2.752s-1.299-2.752-2.9-2.752c-1.602 0-2.9 1.232-2.9 2.752s1.298 2.752 2.9 2.752M26.874 21.803c1.601 0 2.9-1.232 2.9-2.752s-1.299-2.752-2.9-2.752c-1.602 0-2.9 1.232-2.9 2.752s1.298 2.752 2.9 2.752M42.86 21.803c1.6 0 2.899-1.232 2.899-2.752s-1.298-2.752-2.9-2.752-2.9 1.232-2.9 2.752 1.299 2.752 2.9 2.752M58.845 21.803c1.601 0 2.9-1.232 2.9-2.752s-1.299-2.752-2.9-2.752c-1.602 0-2.9 1.232-2.9 2.752s1.298 2.752 2.9 2.752M19.043 45.643c1.602 0 2.9-1.233 2.9-2.753s-1.298-2.752-2.9-2.752-2.9 1.232-2.9 2.752 1.299 2.752 2.9 2.752M3.104 45.643c1.601 0 2.9-1.233 2.9-2.753s-1.299-2.752-2.9-2.752c-1.602 0-2.9 1.232-2.9 2.752s1.298 2.752 2.9 2.752M34.982 45.643c1.602 0 2.9-1.233 2.9-2.753s-1.298-2.752-2.9-2.752-2.9 1.232-2.9 2.752 1.299 2.752 2.9 2.752M50.922 45.643c1.601 0 2.9-1.233 2.9-2.753s-1.299-2.752-2.9-2.752c-1.602 0-2.9 1.232-2.9 2.752s1.298 2.752 2.9 2.752M10.888 37.65c1.601 0 2.9-1.233 2.9-2.752 0-1.52-1.299-2.753-2.9-2.753-1.602 0-2.9 1.233-2.9 2.753s1.298 2.752 2.9 2.752M26.874 37.65c1.601 0 2.9-1.233 2.9-2.752 0-1.52-1.299-2.753-2.9-2.753-1.602 0-2.9 1.233-2.9 2.753s1.298 2.752 2.9 2.752M42.86 37.65c1.6 0 2.899-1.233 2.899-2.752 0-1.52-1.298-2.753-2.9-2.753s-2.9 1.233-2.9 2.753 1.299 2.752 2.9 2.752M58.845 37.65c1.601 0 2.9-1.233 2.9-2.752 0-1.52-1.299-2.753-2.9-2.753-1.602 0-2.9 1.233-2.9 2.753s1.298 2.752 2.9 2.752M19.043 61.767c1.602 0 2.9-1.232 2.9-2.752s-1.298-2.752-2.9-2.752-2.9 1.232-2.9 2.752 1.299 2.752 2.9 2.752M3.104 61.767c1.601 0 2.9-1.232 2.9-2.752s-1.299-2.752-2.9-2.752c-1.602 0-2.9 1.232-2.9 2.752s1.298 2.752 2.9 2.752M34.982 61.767c1.602 0 2.9-1.232 2.9-2.752s-1.298-2.752-2.9-2.752-2.9 1.232-2.9 2.752 1.299 2.752 2.9 2.752M50.922 61.767c1.601 0 2.9-1.232 2.9-2.752s-1.299-2.752-2.9-2.752c-1.602 0-2.9 1.232-2.9 2.752s1.298 2.752 2.9 2.752M10.888 53.774c1.601 0 2.9-1.232 2.9-2.752s-1.299-2.752-2.9-2.752c-1.602 0-2.9 1.232-2.9 2.752s1.298 2.752 2.9 2.752M26.874 53.774c1.601 0 2.9-1.232 2.9-2.752s-1.299-2.752-2.9-2.752c-1.602 0-2.9 1.232-2.9 2.752s1.298 2.752 2.9 2.752M42.86 53.774c1.6 0 2.899-1.232 2.899-2.752s-1.298-2.752-2.9-2.752-2.9 1.232-2.9 2.752 1.299 2.752 2.9 2.752M58.845 53.774c1.601 0 2.9-1.232 2.9-2.752s-1.299-2.752-2.9-2.752c-1.602 0-2.9 1.232-2.9 2.752s1.298 2.752 2.9 2.752"/></svg>