<svg width="96" height="96" viewBox="0 0 96 96" fill="none" xmlns="http://www.w3.org/2000/svg">
<path d="M67.7715 90H28.2285V84.4102H39.543V78.8204H45.181V17.2179H22.5905V28.3974H16.9139V17.2179H11.2759V11.5898H45.181V6H50.819V11.5898H84.7241V17.2179H79.0861V28.3974H73.4095V17.2179H50.819V78.8204H56.457V84.4102H67.7715V90ZM16.9139 39.6153H11.2759V28.3974H16.9139V39.6153ZM28.2285 39.6153H22.5905V28.3974H28.2285V39.6153ZM73.4095 39.6153H67.7715V28.3974H73.4095V39.6153ZM84.7241 39.6153H79.0861V28.3974H84.7241V39.6153ZM11.2759 50.7949H5.63797V39.6153H11.2759V50.7949ZM33.8665 50.7949H28.2285V39.6153H33.8665V50.7949ZM67.7715 50.7949H62.1335V39.6153H67.7715V50.7949ZM90.362 50.7949H84.7241V39.6153H90.362V50.7949ZM33.8665 73.2306H5.63797V67.6026H0V50.7949H5.63797V62.0128H11.2759V56.423H16.9139V62.0128H22.5905V56.423H28.2285V62.0128H33.8665V50.7949H39.543V67.6026H33.8665V73.2306ZM22.5905 56.423H16.9139V50.7949H22.5905V56.423ZM90.362 73.2306H62.1335V67.6026H56.457V50.7949H62.1335V62.0128H67.7715V56.423H73.4095V62.0128H79.0861V56.423H84.7241V62.0128H90.362V50.7949H96V67.6026H90.362V73.2306ZM79.0861 56.423H73.4095V50.7949H79.0861V56.423Z" fill="black"/>
</svg>
